<mxfile host="65bd71144e">
    <diagram id="U3KHBl319MZRdaSGzsXP" name="PÃ¡gina-1">
        <mxGraphModel dx="576" dy="411" grid="1" gridSize="10" guides="1" tooltips="1" connect="1" arrows="1" fold="1" page="1" pageScale="1" pageWidth="827" pageHeight="1169" math="0" shadow="0">
            <root>
                <mxCell id="0"/>
                <mxCell id="1" parent="0"/>
                <mxCell id="2" value="inicio" style="ellipse;whiteSpace=wrap;html=1;fillColor=#FF99FF;" parent="1" vertex="1">
                    <mxGeometry x="240" width="120" height="60" as="geometry"/>
                </mxCell>
                <mxCell id="3" value="" style="endArrow=classic;startArrow=classic;html=1;" parent="1" edge="1">
                    <mxGeometry width="50" height="50" relative="1" as="geometry">
                        <mxPoint x="299.5" y="110" as="sourcePoint"/>
                        <mxPoint x="299.5" y="60" as="targetPoint"/>
                        <Array as="points">
                            <mxPoint x="299.5" y="60"/>
                        </Array>
                    </mxGeometry>
                </mxCell>
                <mxCell id="4" value="R" style="rounded=1;whiteSpace=wrap;html=1;fillColor=#FFCCFF;" parent="1" vertex="1">
                    <mxGeometry x="240" y="100" width="110" height="50" as="geometry"/>
                </mxCell>
                <mxCell id="5" value="" style="endArrow=classic;startArrow=classic;html=1;" parent="1" edge="1">
                    <mxGeometry width="50" height="50" relative="1" as="geometry">
                        <mxPoint x="299.5" y="190" as="sourcePoint"/>
                        <mxPoint x="299.5" y="140" as="targetPoint"/>
                    </mxGeometry>
                </mxCell>
                <mxCell id="6" value="A: II R*&lt;br&gt;P; 2 II R" style="shape=parallelogram;perimeter=parallelogramPerimeter;whiteSpace=wrap;html=1;fixedSize=1;fillColor=#808080;" parent="1" vertex="1">
                    <mxGeometry x="235" y="190" width="120" height="60" as="geometry"/>
                </mxCell>
                <mxCell id="7" value="A, P" style="shape=step;perimeter=stepPerimeter;whiteSpace=wrap;html=1;fixedSize=1;fillColor=#99FF99;" parent="1" vertex="1">
                    <mxGeometry x="235" y="290" width="115" height="50" as="geometry"/>
                </mxCell>
                <mxCell id="8" value="" style="endArrow=classic;startArrow=classic;html=1;" parent="1" edge="1">
                    <mxGeometry width="50" height="50" relative="1" as="geometry">
                        <mxPoint x="290" y="250" as="sourcePoint"/>
                        <mxPoint x="290" y="290" as="targetPoint"/>
                    </mxGeometry>
                </mxCell>
                <mxCell id="9" value="" style="endArrow=classic;startArrow=classic;html=1;" parent="1" edge="1">
                    <mxGeometry width="50" height="50" relative="1" as="geometry">
                        <mxPoint x="292" y="370" as="sourcePoint"/>
                        <mxPoint x="292" y="340" as="targetPoint"/>
                    </mxGeometry>
                </mxCell>
                <mxCell id="10" value="FIN" style="ellipse;whiteSpace=wrap;html=1;fillColor=#FF99FF;" vertex="1" parent="1">
                    <mxGeometry x="240" y="370" width="120" height="80" as="geometry"/>
                </mxCell>
            </root>
        </mxGraphModel>
    </diagram>
</mxfile>